<mxfile host="app.diagrams.net" modified="2023-09-28T09:14:11.905Z" agent="Mozilla/5.0 (Windows NT 10.0; Win64; x64) AppleWebKit/537.36 (KHTML, like Gecko) Chrome/117.0.0.0 Safari/537.36" etag="I1PthezQAsvBblwCOsZd" version="21.8.2" type="device">
  <diagram id="C5RBs43oDa-KdzZeNtuy" name="Page-1">
    <mxGraphModel dx="989" dy="530" grid="1" gridSize="10" guides="1" tooltips="1" connect="1" arrows="1" fold="1" page="1" pageScale="1" pageWidth="827" pageHeight="1169" math="0" shadow="0">
      <root>
        <mxCell id="WIyWlLk6GJQsqaUBKTNV-0" />
        <mxCell id="WIyWlLk6GJQsqaUBKTNV-1" parent="WIyWlLk6GJQsqaUBKTNV-0" />
        <mxCell id="CH2sOMXM6oVnG1J7-m-L-0" value="Termék" style="swimlane;whiteSpace=wrap;html=1;" vertex="1" parent="WIyWlLk6GJQsqaUBKTNV-1">
          <mxGeometry x="400" y="80" width="120" height="200" as="geometry" />
        </mxCell>
        <mxCell id="CH2sOMXM6oVnG1J7-m-L-2" value="&lt;u&gt;&lt;font style=&quot;font-size: 14px;&quot;&gt;termék_id&lt;/font&gt;&lt;/u&gt;" style="text;html=1;align=center;verticalAlign=middle;resizable=0;points=[];autosize=1;strokeColor=none;fillColor=none;" vertex="1" parent="CH2sOMXM6oVnG1J7-m-L-0">
          <mxGeometry x="20" y="30" width="80" height="30" as="geometry" />
        </mxCell>
        <mxCell id="CH2sOMXM6oVnG1J7-m-L-3" value="&lt;font style=&quot;font-size: 14px;&quot;&gt;virag&lt;/font&gt;" style="text;html=1;align=center;verticalAlign=middle;resizable=0;points=[];autosize=1;strokeColor=none;fillColor=none;" vertex="1" parent="CH2sOMXM6oVnG1J7-m-L-0">
          <mxGeometry x="35" y="70" width="50" height="30" as="geometry" />
        </mxCell>
        <mxCell id="CH2sOMXM6oVnG1J7-m-L-4" value="&lt;font style=&quot;font-size: 14px;&quot;&gt;eladási_ár&lt;/font&gt;" style="text;html=1;align=center;verticalAlign=middle;resizable=0;points=[];autosize=1;strokeColor=none;fillColor=none;" vertex="1" parent="CH2sOMXM6oVnG1J7-m-L-0">
          <mxGeometry x="15" y="130" width="90" height="30" as="geometry" />
        </mxCell>
        <mxCell id="CH2sOMXM6oVnG1J7-m-L-9" value="Virág" style="swimlane;whiteSpace=wrap;html=1;" vertex="1" parent="WIyWlLk6GJQsqaUBKTNV-1">
          <mxGeometry x="200" y="70" width="130" height="200" as="geometry" />
        </mxCell>
        <mxCell id="CH2sOMXM6oVnG1J7-m-L-10" value="&lt;font style=&quot;font-size: 14px;&quot;&gt;virág_id&lt;/font&gt;" style="text;html=1;align=center;verticalAlign=middle;resizable=0;points=[];autosize=1;strokeColor=none;fillColor=none;" vertex="1" parent="CH2sOMXM6oVnG1J7-m-L-9">
          <mxGeometry x="34" y="38" width="70" height="30" as="geometry" />
        </mxCell>
        <mxCell id="CH2sOMXM6oVnG1J7-m-L-12" value="&lt;font style=&quot;font-size: 14px;&quot;&gt;neve&lt;/font&gt;" style="text;html=1;align=center;verticalAlign=middle;resizable=0;points=[];autosize=1;strokeColor=none;fillColor=none;" vertex="1" parent="CH2sOMXM6oVnG1J7-m-L-9">
          <mxGeometry x="44" y="78" width="50" height="30" as="geometry" />
        </mxCell>
        <mxCell id="CH2sOMXM6oVnG1J7-m-L-13" value="&lt;font style=&quot;font-size: 14px;&quot;&gt;típus&lt;/font&gt;" style="text;html=1;align=center;verticalAlign=middle;resizable=0;points=[];autosize=1;strokeColor=none;fillColor=none;" vertex="1" parent="CH2sOMXM6oVnG1J7-m-L-9">
          <mxGeometry x="44" y="128" width="50" height="30" as="geometry" />
        </mxCell>
        <mxCell id="CH2sOMXM6oVnG1J7-m-L-14" value="Típus" style="swimlane;whiteSpace=wrap;html=1;" vertex="1" parent="WIyWlLk6GJQsqaUBKTNV-1">
          <mxGeometry x="10" y="60" width="130" height="200" as="geometry" />
        </mxCell>
        <mxCell id="CH2sOMXM6oVnG1J7-m-L-15" value="Típus_id" style="text;html=1;align=center;verticalAlign=middle;resizable=0;points=[];autosize=1;strokeColor=none;fillColor=none;" vertex="1" parent="CH2sOMXM6oVnG1J7-m-L-14">
          <mxGeometry x="30" y="38" width="70" height="30" as="geometry" />
        </mxCell>
        <mxCell id="CH2sOMXM6oVnG1J7-m-L-16" value="neve" style="text;html=1;align=center;verticalAlign=middle;resizable=0;points=[];autosize=1;strokeColor=none;fillColor=none;" vertex="1" parent="CH2sOMXM6oVnG1J7-m-L-14">
          <mxGeometry x="40" y="85" width="50" height="30" as="geometry" />
        </mxCell>
        <mxCell id="CH2sOMXM6oVnG1J7-m-L-17" value="leírás" style="text;html=1;align=center;verticalAlign=middle;resizable=0;points=[];autosize=1;strokeColor=none;fillColor=none;" vertex="1" parent="CH2sOMXM6oVnG1J7-m-L-14">
          <mxGeometry x="40" y="138" width="50" height="30" as="geometry" />
        </mxCell>
        <mxCell id="CH2sOMXM6oVnG1J7-m-L-18" value="" style="endArrow=classic;html=1;rounded=0;" edge="1" parent="WIyWlLk6GJQsqaUBKTNV-1" source="CH2sOMXM6oVnG1J7-m-L-15" target="CH2sOMXM6oVnG1J7-m-L-13">
          <mxGeometry width="50" height="50" relative="1" as="geometry">
            <mxPoint x="150" y="180" as="sourcePoint" />
            <mxPoint x="170" y="170" as="targetPoint" />
            <Array as="points">
              <mxPoint x="200" y="190" />
            </Array>
          </mxGeometry>
        </mxCell>
        <mxCell id="CH2sOMXM6oVnG1J7-m-L-20" value="" style="endArrow=classic;html=1;rounded=0;" edge="1" parent="WIyWlLk6GJQsqaUBKTNV-1" source="CH2sOMXM6oVnG1J7-m-L-10" target="CH2sOMXM6oVnG1J7-m-L-3">
          <mxGeometry width="50" height="50" relative="1" as="geometry">
            <mxPoint x="420" y="330" as="sourcePoint" />
            <mxPoint x="470" y="280" as="targetPoint" />
          </mxGeometry>
        </mxCell>
      </root>
    </mxGraphModel>
  </diagram>
</mxfile>
